<?xml version="1.0" encoding="UTF-8" standalone="no"?>
<!-- Generator: Adobe Illustrator 15.0.2, SVG Export Plug-In . SVG Version: 6.00 Build 0)  -->

<svg
   xmlns:dc="http://purl.org/dc/elements/1.1/"
   xmlns:cc="http://creativecommons.org/ns#"
   xmlns:rdf="http://www.w3.org/1999/02/22-rdf-syntax-ns#"
   xmlns:svg="http://www.w3.org/2000/svg"
   xmlns="http://www.w3.org/2000/svg"
   xmlns:sodipodi="http://sodipodi.sourceforge.net/DTD/sodipodi-0.dtd"
   xmlns:inkscape="http://www.inkscape.org/namespaces/inkscape"
   version="1.1"
   id="Layer_1"
   x="0px"
   y="0px"
   width="713.55701"
   height="208.25301"
   viewBox="0 0 713.55701 208.25301"
   enable-background="new 0 0 792 612"
   xml:space="preserve"
   inkscape:version="0.91 r13725"
   sodipodi:docname="BSK_Logo_SolidColors_svg.svg"><metadata
     id="metadata11"><rdf:RDF><cc:Work
         rdf:about=""><dc:format>image/svg+xml</dc:format><dc:type
           rdf:resource="http://purl.org/dc/dcmitype/StillImage" /><dc:title></dc:title></cc:Work></rdf:RDF></metadata><defs
     id="defs9" /><sodipodi:namedview
     pagecolor="#ffffff"
     bordercolor="#666666"
     borderopacity="1"
     objecttolerance="10"
     gridtolerance="10"
     guidetolerance="10"
     inkscape:pageopacity="0"
     inkscape:pageshadow="2"
     inkscape:window-width="1920"
     inkscape:window-height="1018"
     id="namedview7"
     showgrid="false"
     inkscape:zoom="1.4545455"
     inkscape:cx="347.75382"
     inkscape:cy="122.08313"
     inkscape:window-x="-8"
     inkscape:window-y="-8"
     inkscape:window-maximized="1"
     inkscape:current-layer="Layer_1" /><path
     d="m 1.375,208.293 0,-206.908 148.702,0 c 31.611,0.103 50.446,0.361 56.396,0.776 13.556,0.774 23.49,3.208 29.854,7.242 0.595,0.381 1.175,0.773 1.734,1.178 -12.48,8.953 -18.744,27.501 -18.744,55.688 0,10.503 0.932,19.195 2.742,26.077 1.017,3.847 2.373,7.342 4.063,10.485 l -0.401,0.12 0.516,0.091 c 3.806,6.981 9.284,12.214 16.415,15.691 3.53,1.72 8.124,3.129 13.772,4.23 7.597,1.479 17.104,2.396 28.5,2.754 8.484,0.155 25.301,0.879 50.344,2.121 25.661,1.189 42.115,1.811 49.412,1.811 11.383,0.208 18.625,1.758 21.678,4.708 2.227,2.12 3.313,5.794 3.313,11.021 0,7.708 -1.811,12.677 -5.434,14.9 -2.432,1.5 -7.658,2.534 -15.625,3.158 -4.244,0.205 -19.818,0.36 -46.669,0.463 -24.888,-0.103 -40.462,-0.413 -46.825,-0.929 -4.14,-0.363 -7.605,-1.553 -10.348,-3.469 -4.242,-2.845 -6.313,-9.416 -6.208,-19.714 l -17.942,0 -43.113,0 c 0,5.643 0,9.313 0,10.919 0,7.503 0.413,14.074 1.189,19.869 1.553,11.435 6.363,20.282 14.59,26.543 2.06,1.594 4.485,3.044 7.277,4.354 -2.534,1.292 -5.309,2.358 -8.323,3.199 -8.124,2.121 -21.627,3.208 -40.617,3.313 l -41.083,0.308 -149.165,0 0,0.001 z m 60.017,-125.366 88.837,0 c 19.403,0 30.993,-0.776 34.822,-2.276 4.969,-1.913 7.45,-6.882 7.45,-14.848 0,-8.177 -3,-13.093 -8.95,-14.695 -2.329,-0.621 -13.453,-0.984 -33.322,-1.087 l -88.837,0 0,32.906 0,0 z m 0,75.643 89.147,0 c 16.559,-0.103 26.285,-0.205 29.235,-0.311 9.158,-0.413 15.056,-2.224 17.54,-5.432 1.913,-2.64 2.897,-6.674 2.897,-12.158 0,-8.691 -3.158,-13.763 -9.419,-15.315 -2.276,-0.568 -15.727,-0.932 -40.254,-1.034 l -89.146,0 0,34.25 0,0 z"
     id="path3"
     inkscape:connector-curvature="0"
     style="fill:#0076c0" /><path
     d="m 428.859,2.056 63.07,0 0,75.024 34.563,0 81.855,-76.369 96.393,0 -119.572,102.912 129.764,105.341 -95.824,0 -92.615,-79.109 -34.563,0 0,79.109 -63.07,0 0,-0.243 c 3.502,-0.516 6.326,-1.09 8.465,-1.72 11.9,-3.416 20.49,-9.832 25.77,-19.248 5.223,-9.469 7.863,-24.475 7.863,-44.859 0,-10.142 -1.035,-19.35 -3.053,-27.784 -2.02,-8.795 -6.674,-15.885 -14.074,-21.369 -5.695,-4.26 -14.045,-7.359 -24.971,-9.337 -1.283,-0.231 -2.598,-0.448 -3.951,-0.649 -9.936,-1.5 -32.805,-2.845 -68.661,-3.932 -39.735,-1.242 -61.983,-2.482 -66.847,-3.829 -5.848,-1.604 -8.798,-6.054 -8.798,-13.349 0,-7.555 2.795,-12.263 8.332,-14.074 5.071,-1.5 20.801,-2.276 47.291,-2.276 30.732,0 48.323,0.414 52.877,1.19 5.951,1.036 9.883,3.57 11.693,7.605 0.775,1.915 1.295,5.95 1.5,12.005 l 26.563,0 34.545,0 c 0.102,-4.761 0.152,-8.279 0.152,-10.607 0,-20.644 -4.863,-34.925 -14.537,-42.944 -4.744,-3.788 -11.471,-6.834 -20.16,-9.137 l 0,-2.351 0,0 z"
     id="path5"
     inkscape:connector-curvature="0"
     style="fill:#919195" /></svg>